<svg width="408" height="517" viewBox="0 0 408 517" fill="none" xmlns="http://www.w3.org/2000/svg">
<path d="M324.406 13.7196C384.871 50.7742 429.121 98.7524 440.252 168.494C446.808 209.564 445.396 251.906 447.566 293.676C445.598 294.304 443.63 294.931 441.662 295.558C438.047 290.971 434.504 286.326 430.807 281.808C410.639 257.16 388.949 234.33 356.948 225.338C343.48 221.554 337.55 212.665 332.831 199.941C307.594 131.899 232.115 100.667 166.736 132.423C135.968 147.368 117.17 174.996 111.51 208.458C107.074 234.688 107 261.816 106.884 288.554C106.821 303.235 103.607 314.318 91.0935 322.893C81.6676 329.35 73.3226 337.415 64.6716 344.966C46.6519 360.693 26.4849 364.988 2.28861 357.1C1.62044 352.535 0.376413 347.993 0.380624 343.452C0.424841 296.515 -0.427556 249.543 1.10178 202.65C3.74635 121.568 41.5442 60.0811 111.888 20.8459C155.29 -3.36201 203.541 -12.5731 253.28 -4.80326C276.675 -1.14907 299.401 6.78781 324.406 13.7196Z" fill="#2184E2"/>
<path d="M0.000350926 457.954C-2.67208e-06 428.605 5.93514e-10 402.067 5.93514e-10 372.268C39.5265 383.924 65.6894 366.215 90.9922 343.89C120.336 317.998 151.231 293.874 180.891 268.331C234.145 222.474 294.387 215.406 356.928 241.759C409.989 264.116 439.97 308.572 443.863 365.695C447.43 418.045 444.62 470.83 444.62 525.506C410.82 525.506 376.982 525.506 339.504 525.506C339.504 499.084 339.603 472.643 339.463 446.203C339.391 432.812 340.06 419.275 338.37 406.063C332.584 360.831 296.11 342.357 257.687 367.01C232.177 383.378 209.629 404.355 185.729 423.238C161.05 442.736 136.464 462.355 111.613 481.632C78.8298 507.066 41.8416 508.816 0.000701852 500.888C0.000701852 487.066 0.00070165 473.916 0.000350926 457.954Z" fill="#102F6E"/>
</svg>
